# xmcd CD database file
#
# Track frame offsets:
#	182
#	26245
#	45380
#	76992
#	112320
#	140512
#	164462
#	182830
#	203580
#	223422
#	274587
#
# Disc length: 4070 seconds
#
# Revision: 2
# Processed by: cddbd v1.5.2PL0 Copyright (c) Steve Scherf et al.
# Submitted via: CDex 1.51
#
DISCID=a40fe40b
DTITLE=Jimmy Giuffre Trio - Vol. 257 - Carla
DYEAR=1996
DGENRE=Jazz
TTITLE0=Carla /
TTITLE1=Whirrr 
TTITLE2=Cry, want 
TTITLE3=Emphasis 
TTITLE4=Jesus Maria 
TTITLE5=Sonic 
TTITLE6=Trudgin' 
TTITLE7=The Gamut 
TTITLE8=Venture 
TTITLE9=Stretching out (Suite for Germany) 
TTITLE10=In the mornings out there 
EXTD=YEAR: 1996
EXTT0=
EXTT1=
EXTT2=
EXTT3=
EXTT4=
EXTT5=
EXTT6=
EXTT7=
EXTT8=
EXTT9=
EXTT10=
PLAYORDER=
